<svg xmlns="http://www.w3.org/2000/svg" width="29" height="29" viewBox="0 0 29 29">
  <g id="emil_icon" transform="translate(2 4)">
    <g id="Outlined" transform="translate(-2 -4)">
      <g id="Communication">
        <g id="Outlined-_-Communication-_-email" data-name="Outlined-/-Communication-/-email">
          <g id="Group_7" data-name="Group 7">
            <path id="Path" d="M0,0H29V29H0Z" fill="none" fill-rule="evenodd"/>
            <path id="_-Icon-Color" data-name="🔹-Icon-Color" d="M26.167,6.417A2.424,2.424,0,0,0,23.75,4H4.417A2.424,2.424,0,0,0,2,6.417v14.5a2.424,2.424,0,0,0,2.417,2.417H23.75a2.424,2.424,0,0,0,2.417-2.417Zm-2.417,0-9.667,6.042L4.417,6.417Zm0,14.5H4.417V8.833l9.667,6.042L23.75,8.833Z" transform="translate(0.417 0.833)" fill="#111749" fill-rule="evenodd"/>
          </g>
        </g>
      </g>
    </g>
  </g>
</svg>
