<svg xmlns="http://www.w3.org/2000/svg" width="30" height="30.038" viewBox="0 0 30 30.038">
  <g id="fillter_icon" transform="translate(-10.554 -10.5)">
    <path id="Path_10173" data-name="Path 10173" d="M31.232,16.536V11.548a1.048,1.048,0,1,0-2.1,0v4.988a4.24,4.24,0,0,0,0,8.2V39.49a1.048,1.048,0,1,0,2.1,0V24.737A4.243,4.243,0,0,0,31.232,16.536Zm-1.048,6.238a2.145,2.145,0,1,1,2.022-2.141A2.145,2.145,0,0,1,30.184,22.774Z" transform="translate(-4.648)" fill="#fff"/>
    <path id="Path_10174" data-name="Path 10174" d="M49.857,25.519a4.24,4.24,0,0,0-3.185-4.1V11.548a1.048,1.048,0,1,0-2.1,0v9.871a4.24,4.24,0,0,0,0,8.2V39.49a1.048,1.048,0,0,0,2.1,0V29.62A4.24,4.24,0,0,0,49.857,25.519Zm-4.191,2.138a2.138,2.138,0,1,0-.028,0Z" transform="translate(-9.303)" fill="#fff"/>
    <path id="Path_10175" data-name="Path 10175" d="M15.8,29.012V11.548a1.048,1.048,0,1,0-2.1,0V29.012a4.24,4.24,0,0,0,0,8.194V39.49a1.048,1.048,0,1,0,2.1,0V37.213a4.24,4.24,0,0,0,0-8.2ZM14.75,35.257a2.145,2.145,0,0,1,0-4.282,2.145,2.145,0,0,1,0,4.282Z" fill="#fff"/>
  </g>
</svg>
