<svg xmlns="http://www.w3.org/2000/svg" width="22.055" height="36.718" viewBox="0 0 22.055 36.718">
  <g id="loc_icon" transform="translate(-23.642 -4.88)">
    <path id="Path_10171" data-name="Path 10171" d="M37.858,31.642l6.162-9.909a.561.561,0,0,0,.05-.1,11.011,11.011,0,1,0-18.769,0,.637.637,0,0,0,.044.089l5.941,9.943c-4.612.652-7.645,2.548-7.645,4.849,0,2.85,4.844,5.083,11.027,5.083S45.7,39.365,45.7,36.515C45.7,34.2,42.522,32.265,37.858,31.642ZM26.409,21.08a9.778,9.778,0,1,1,16.554,0,.594.594,0,0,0-.051.1L36.4,31.649c-.1.15-.117.184-.237.381L34.52,34.673,26.464,21.191A.62.62,0,0,0,26.409,21.08Zm8.261,19.285c-5.772,0-9.794-2.029-9.794-3.85,0-1.652,3.029-3.209,7.1-3.691l2,3.35a.616.616,0,0,0,.524.3h.005a.617.617,0,0,0,.524-.291l2.1-3.383c4.139.448,7.325,2.045,7.325,3.716C44.463,38.336,40.441,40.365,34.669,40.365Z" fill="#fff"/>
    <path id="Path_10172" data-name="Path 10172" d="M48.738,25.933a4,4,0,1,0-4,4A4.008,4.008,0,0,0,48.738,25.933Zm-6.774,0A2.771,2.771,0,1,1,44.735,28.7,2.774,2.774,0,0,1,41.964,25.933Z" transform="translate(-10.065 -10.042)" fill="#fff"/>
  </g>
</svg>
