<svg xmlns="http://www.w3.org/2000/svg" width="17.821" height="20.94" viewBox="0 0 17.821 20.94">
  <path id="Icon_material-lock-outline" data-name="Icon material-lock-outline" d="M14.911,17.454a2.127,2.127,0,0,0,2.228-1.994,2.127,2.127,0,0,0-2.228-1.994,2.127,2.127,0,0,0-2.228,1.994A2.127,2.127,0,0,0,14.911,17.454ZM21.593,8.48H20.48V6.486c0-2.752-2.495-4.986-5.569-4.986S9.341,3.734,9.341,6.486V8.48H8.228A2.127,2.127,0,0,0,6,10.474v9.971A2.127,2.127,0,0,0,8.228,22.44H21.593a2.127,2.127,0,0,0,2.228-1.994V10.474A2.127,2.127,0,0,0,21.593,8.48ZM11.458,6.486a3.29,3.29,0,0,1,3.453-3.091,3.29,3.29,0,0,1,3.453,3.091V8.48H11.458Zm10.136,13.96H8.228V10.474H21.593Z" transform="translate(-6 -1.5)" fill="#111749"/>
</svg>
