<svg id="name_icon" xmlns="http://www.w3.org/2000/svg" width="30" height="30" viewBox="0 0 30 30">
  <path id="Shape" d="M15,0A15,15,0,1,0,30,15,15,15,0,0,0,15,0Zm0,29A14,14,0,1,1,29,15,14,14,0,0,1,15,29Z" fill="#111749"/>
  <path id="Shape-2" data-name="Shape" d="M26.734,6.561A6.585,6.585,0,0,0,21.239,4c-3.918,0-7.355,3.25-7.355,6.95a10.741,10.741,0,0,0,.53,3.208c-.831.588-.569,2.353-.455,2.938a3.422,3.422,0,0,0,1.856,2.7,4.107,4.107,0,0,0,1.57,3.08v2.909a22.18,22.18,0,0,1-1.954,1.657.5.5,0,0,0,.04.842,12.956,12.956,0,0,0,12.853.02.5.5,0,0,0,.039-.842,21.955,21.955,0,0,1-1.977-1.677V22.876a4.11,4.11,0,0,0,1.57-3.08,3.423,3.423,0,0,0,1.857-2.7,4.318,4.318,0,0,0-.15-2.6c1.568-3.3.6-7.5-2.929-7.931ZM21.239,5a5.467,5.467,0,0,1,4.787,2.3.5.5,0,0,0,.433.25h.135c.114.006,2.791.2,2.791,3.85A6.155,6.155,0,0,1,28.79,14c-.032,0-.065-.006-.1,0a1.872,1.872,0,0,0-.719.144c-.444-3.95-1.911-4.879-2.088-4.977a.5.5,0,0,0-.669.177c-1.317,2.15-4.481,2.46-4.469,2.461h-2.61c-1.543,0-2.5.755-2.559,2.019,0,.074-.007.158-.007.25-.05-.014-.1-.03-.15-.039a9.841,9.841,0,0,1-.539-3.082c0-3.114,3.03-5.95,6.355-5.95ZM14.953,16.991a.538.538,0,0,0-.009-.063,3.336,3.336,0,0,1,.025-1.938l.054,0c.264.009.56.054.6.325.007.05.112,1.577.15,1.776a5.905,5.905,0,0,1,.066,1.543,2.514,2.514,0,0,1-.882-1.647Zm12.2,10.8a12.146,12.146,0,0,1-10.513-.02c.777-.633,1.55-1.373,1.591-1.413A.5.5,0,0,0,18.384,26V24.053C19.122,25.1,19.593,26,21.034,26c2.754,0,2.825.223,4.35-1.947V26a.5.5,0,0,0,.153.361c.042.039.83.8,1.614,1.433Zm-1.35-5.75C24.109,23.583,24.09,25,22.734,25c-2.371,0-2.35.209-3.3-1.187-1.844-2.7-2.746-2.05-2.6-5.01a7.141,7.141,0,0,0-.083-1.95,28.339,28.339,0,0,1-.168-2.984c.013-.264.05-1.07,1.561-1.07h2.654a7.784,7.784,0,0,0,4.926-2.437c.429.541,1.15,1.857,1.336,4.726.013.2.061,1.3.042,1.394a7.107,7.107,0,0,0-.159,2.318A3.386,3.386,0,0,1,25.8,22.045Zm3.023-5.118a.52.52,0,0,0-.009.061,2.52,2.52,0,0,1-.883,1.65,6.166,6.166,0,0,1,.145-1.966.807.807,0,0,0,.02-.128c.009-.144-.013-.827-.026-1.1.017-.139.115-.446.653-.446.018,0,.058,0,.087.005a3.659,3.659,0,0,1,.014,1.928Z" transform="translate(-6.914 -2)" fill="#111749"/>
</svg>
