<svg xmlns="http://www.w3.org/2000/svg" width="31" height="31" viewBox="0 0 31 31">
  <g id="Icons" transform="translate(5.701 1.083)">
    <g id="Rounded" transform="translate(-6 -1.382)">
      <g id="Hardware" transform="translate(0 0)">
        <g id="_-Round-_-Hardware-_-phone_iphone" data-name="-Round-/-Hardware-/-phone_iphone">
          <g id="Group_3" data-name="Group 3">
            <rect id="Rectangle-Copy-120" width="31" height="31" transform="translate(0.299 0.299)" fill="none"/>
            <path id="_-Icon-Color" data-name="🔹-Icon-Color" d="M19.513,1H9.217A3.219,3.219,0,0,0,6,4.217V26.1a3.219,3.219,0,0,0,3.217,3.217h10.3A3.219,3.219,0,0,0,22.73,26.1V4.217A3.219,3.219,0,0,0,19.513,1ZM14.365,28.026A1.93,1.93,0,1,1,16.3,26.1,1.928,1.928,0,0,1,14.365,28.026Zm5.791-5.148H8.574V4.861H20.156Z" transform="translate(1.722 0.7)" fill="#111749" fill-rule="evenodd"/>
          </g>
        </g>
      </g>
    </g>
  </g>
</svg>
