<svg xmlns="http://www.w3.org/2000/svg" width="27.846" height="27.846" viewBox="0 0 27.846 27.846">
  <path id="planet" d="M29.695,11.908q-.134-.376-.288-.741A13.922,13.922,0,0,0,16.684,2.655h-.206a13.925,13.925,0,0,0-12.73,8.512q-.155.365-.288.741a13.935,13.935,0,0,0,0,9.339c.089.251.185.5.289.74A13.92,13.92,0,0,0,16.471,30.5h.206a13.924,13.924,0,0,0,12.729-8.512q.155-.365.288-.74a13.934,13.934,0,0,0,0-9.338ZM24.143,13.28h3.525a11.6,11.6,0,0,1,0,6.594H24.142a25.351,25.351,0,0,0,.212-3.3,25.405,25.405,0,0,0-.212-3.3Zm-6.389,6.594V13.28h4.008a22.526,22.526,0,0,1,.239,3.3,22.535,22.535,0,0,1-.239,3.3Zm0-8.947V5.308c1.446.742,2.747,2.81,3.517,5.619ZM21.883,6.3a11.548,11.548,0,0,1,4.788,4.63H23.709a17.221,17.221,0,0,0-1.42-3.9Q22.094,6.647,21.883,6.3Zm4.788,15.931a11.553,11.553,0,0,1-4.787,4.63q.21-.348.405-.726a17.235,17.235,0,0,0,1.42-3.9Zm-5.4,0C20.5,25.037,19.2,27.1,17.754,27.846V22.227ZM15.4,5.308v5.619H11.882C12.653,8.118,13.954,6.05,15.4,5.308Zm0,7.972v6.594H11.392a22.861,22.861,0,0,1,0-6.594Zm0,8.947v5.619c-1.446-.742-2.747-2.81-3.518-5.619Zm-8.916-11.3A11.544,11.544,0,0,1,11.271,6.3q-.211.349-.406.727a17.262,17.262,0,0,0-1.42,3.9Zm2.961,11.3a17.3,17.3,0,0,0,1.42,3.9q.2.377.405.726a11.546,11.546,0,0,1-4.786-4.63Zm-.433-2.353H5.487a11.592,11.592,0,0,1,0-6.594H9.012A25.737,25.737,0,0,0,9.012,19.874Z" transform="translate(-2.654 -2.654)" fill="#2d3e50"/>
</svg>
